# xmcd
#
# Track frame offsets: 
#        150
#        19200
#        39285
#        54900
#        77820
#        101200
#        127082
#        146448
#        169992
#        184426
#        207260
#        224656
#
# Disc length: 3197 seconds
#
# Revision: 1
# Processed by: cddbd v1.5.2PL0 Copyright (c) Steve Scherf et al.
# Submitted via: ExactAudioCopy v0.99pb3
#
DISCID=b50c7b0c
DTITLE=Ilse DeLange - Live in Gelredome 2011 CD01
DYEAR=2011
DGENRE=Country
TTITLE0=If It Takes All Night
TTITLE1=Next To Me
TTITLE2=Eyes Straight Ahead
TTITLE3=World Of Hurt
TTITLE4=Livin' On Love
TTITLE5=I Still Cry
TTITLE6=We're Alright
TTITLE7=Flying Blind
TTITLE8=I'd Be Yours
TTITLE9=Almost
TTITLE10=Beautiful Distraction
TTITLE11=Something Amazing
EXTD=
EXTT0=
EXTT1=
EXTT2=
EXTT3=
EXTT4=
EXTT5=
EXTT6=
EXTT7=
EXTT8=
EXTT9=
EXTT10=
EXTT11=
PLAYORDER=
